  0
SECTION
  2
ENTITIES
  0
CIRCLE
  8
0
 10
813.358009
 20
546.582048
 40
154.753164
  0
LINE
  8
CYAN
 10
476.094708
 20
385.685547
 11
419.818706
 21
393.805297
  0
LINE
  8
CYAN
 10
462.520219
 20
361.276753
 11
452.488504
 21
400.666451
  0
LINE
  8
CYAN
 10
467.975015
 20
339.858408
 11
464.127527
 21
354.965634
  0
LINE
  8
CYAN
 10
455.409595
 20
332.923703
 11
452.327239
 21
344.968285
  0
LINE
  8
CYAN
 10
450.740278
 20
351.169476
 11
436.831839
 21
405.517945
  0
LINE
  8
CYAN
 10
424.905018
 20
344.316301
 11
416.098967
 21
374.471384
  0
LINE
  8
CYAN
 10
438.662318
 20
343.460027
 11
429.915087
 21
372.196817
  0
LINE
  8
CYAN
 10
383.473144
 20
297.512807
 11
390.560694
 21
294.580133
  0
LINE
  8
CYAN
 10
574.829326
 20
320.968812
 11
569.468056
 21
336.745889
  0
LINE
  8
CYAN
 10
715.438086
 20
308.134483
 11
714.050968
 21
311.695365
  0
LINE
  8
CYAN
 10
726.115832
 20
309.58544
 11
570.808358
 21
336.745889
  0
LINE
  8
GREEN
 10
646.149349
 20
371.525572
 11
665.970782
 21
394.116969
  0
LINE
  8
GREEN
 10
665.970782
 20
394.116969
 11
641.914139
 21
372.618424
  0
LINE
  8
CYAN
 10
641.914139
 20
372.618424
 11
613.698451
 21
415.631148
  0
LINE
  8
CYAN
 10
613.698451
 20
415.631148
 11
628.441958
 21
440.013846
  0
LINE
  8
CYAN
 10
628.441958
 20
440.013846
 11
631.122561
 21
458.659442
  0
LINE
  8
CYAN
 10
631.122561
 20
458.659442
 11
635.143529
 21
461.528024
  0
LINE
  8
CYAN
 10
635.143529
 20
461.528024
 11
631.122561
 21
467.265126
  0
LINE
  8
CYAN
 10
631.122561
 20
467.265126
 11
625.761292
 21
464.396544
  0
LINE
  8
CYAN
 10
625.761292
 20
464.396544
 11
620.400023
 21
468.699417
  0
LINE
  8
CYAN
 10
620.400023
 20
468.699417
 11
604.316277
 21
460.093733
  0
LINE
  8
CYAN
 10
604.316277
 20
460.093733
 11
598.955007
 21
462.962253
  0
LINE
  8
CYAN
 10
546.786984
 20
459.428679
 11
505.132885
 21
432.842453
  0
LINE
  8
CYAN
 10
505.132885
 20
432.842453
 11
476.986299
 21
402.722653
  0
LINE
  8
CYAN
 10
476.986299
 20
402.722653
 11
476.986299
 21
399.854071
  0
LINE
  8
CYAN
 10
510.492341
 20
366.501175
 11
517.206169
 21
368.081797
  0
LINE
  8
CYAN
 10
517.206169
 20
368.081797
 11
548.022978
 21
379.774184
  0
LINE
  8
GREEN
 10
822.787648
 20
326.705914
 11
807.56938
 21
313.202216
  0
LINE
  8
YELLOW
 10
798.843567
 20
305.439685
 11
771.853993
 21
286.554957
  0
LINE
  8
YELLOW
 10
771.853993
 20
286.554957
 11
566.78739
 21
250.689238
  0
LINE
  8
YELLOW
 10
566.78739
 20
250.689238
 11
525.692269
 21
236.461654
  0
LINE
  8
YELLOW
 10
525.692269
 20
236.461654
 11
368.566043
 21
165.993439
  0
LINE
  8
YELLOW
 10
392.546414
 20
194.752449
 11
476.986299
 21
244.952136
  0
LINE
  8
YELLOW
 10
476.986299
 20
244.952136
 11
549.363343
 21
272.203416
  0
LINE
  8
YELLOW
 10
549.363343
 20
272.203416
 11
766.494412
 21
302.323216
  0
LINE
  8
YELLOW
 10
766.494412
 20
302.323216
 11
787.93949
 21
312.363191
  0
LINE
  8
YELLOW
 10
787.93949
 20
312.363191
 11
798.843567
 21
305.439685
  0
LINE
  8
YELLOW
 10
807.56938
 20
313.202216
 11
798.843567
 21
305.439685
  0
LINE
  8
YELLOW
 10
775.87665
 20
306.626027
 11
788.578343
 21
298.115082
  0
LINE
  8
YELLOW
 10
766.494412
 20
302.323216
 11
771.853993
 21
286.554957
  0
LINE
  8
YELLOW
 10
745.291412
 20
299.381996
 11
751.224851
 21
282.946963
  0
LINE
  8
YELLOW
 10
718.122296
 20
295.403024
 11
726.401299
 21
278.58825
  0
LINE
  8
YELLOW
 10
695.457733
 20
292.283304
 11
706.182041
 21
275.06907
  0
LINE
  8
YELLOW
 10
672.179194
 20
289.240079
 11
683.992534
 21
270.994499
  0
LINE
  8
YELLOW
 10
650.876457
 20
286.001214
 11
661.014048
 21
267.197593
  0
LINE
  8
YELLOW
 10
632.462863
 20
283.67762
 11
641.97691
 21
263.839727
  0
LINE
  8
YELLOW
 10
608.805628
 20
280.39631
 11
621.057801
 21
260.181019
  0
LINE
  8
YELLOW
 10
586.502952
 20
277.141827
 11
598.3301
 21
256.16851
  0
LINE
  8
YELLOW
 10
566.738488
 20
274.534202
 11
575.561917
 21
252.235028
  0
LINE
  8
YELLOW
 10
549.363343
 20
272.203416
 11
566.78739
 21
250.689238
  0
LINE
  8
YELLOW
 10
528.201734
 20
264.235683
 11
544.539893
 21
242.986909
  0
LINE
  8
YELLOW
 10
509.244775
 20
257.098042
 11
525.692269
 21
236.461654
  0
LINE
  8
YELLOW
 10
494.595429
 20
251.582295
 11
511.93377
 21
230.291221
  0
LINE
  8
YELLOW
 10
476.986299
 20
244.952136
 11
497.089637
 21
223.90903
  0
LINE
  8
YELLOW
 10
453.911134
 20
230.940345
 11
480.569212
 21
216.676916
  0
LINE
  8
YELLOW
 10
439.267995
 20
222.301893
 11
465.362825
 21
209.444739
  0
LINE
  8
YELLOW
 10
427.06539
 20
215.069717
 11
449.781044
 21
202.815271
  0
LINE
  8
YELLOW
 10
415.331794
 20
207.660943
 11
435.137905
 21
195.984878
  0
LINE
  8
YELLOW
 10
404.183954
 20
201.67099
 11
421.756742
 21
189.848487
  0
LINE
  8
YELLOW
 10
394.212208
 20
195.583094
 11
408.415684
 21
183.865268
  0
LINE
  8
YELLOW
 10
807.56938
 20
313.202216
 11
797.321665
 21
318.100293
  0
LINE
  8
CYAN
 10
797.321665
 20
318.100293
 11
596.274341
 21
349.654384
  0
LINE
  8
CYAN
 10
769.823874
 20
322.34282
 11
757.112238
 21
313.797419
  0
LINE
  8
CYAN
 10
757.112238
 20
313.797419
 11
672.672353
 21
302.323216
  0
LINE
  8
CYAN
 10
672.672353
 20
302.323216
 11
661.949814
 21
298.020405
  0
LINE
  8
CYAN
 10
661.949814
 20
298.020405
 11
550.703644
 21
279.374809
  0
LINE
  8
CYAN
 10
550.703644
 20
279.374809
 11
495.750711
 21
259.294921
  0
LINE
  8
CYAN
 10
495.750711
 20
259.294921
 11
383.368727
 21
210.449168
  0
LINE
  8
CYAN
 10
379.143271
 20
216.266564
 11
490.389441
 21
293.717532
  0
LINE
  8
CYAN
 10
490.389441
 20
293.717532
 11
527.918265
 21
316.666002
  0
LINE
  8
CYAN
 10
527.918265
 20
316.666002
 11
570.808358
 21
336.745889
  0
LINE
  8
CYAN
 10
570.808358
 20
336.745889
 11
596.274341
 21
349.654384
  0
LINE
  8
CYAN
 10
386.392362
 20
211.763362
 11
379.143271
 21
216.266564
  0
LINE
  8
CYAN
 10
379.143271
 20
216.266564
 11
364.399765
 21
250.689238
  0
LINE
  8
CYAN
 10
379.174053
 20
260.686365
 11
392.522588
 21
225.516229
  0
LINE
  8
CYAN
 10
392.522588
 20
225.516229
 11
402.650553
 21
218.82983
  0
LINE
  8
CYAN
 10
487.515293
 20
255.650224
 11
454.098863
 21
268.306517
  0
LINE
  8
CYAN
 10
454.098863
 20
268.306517
 11
437.202981
 21
300.248572
  0
LINE
  8
CYAN
 10
449.217858
 20
308.6861
 11
464.923458
 21
276.506227
  0
LINE
  8
CYAN
 10
520.368538
 20
268.306517
 11
472.12124
 21
280.761886
  0
LINE
  8
CYAN
 10
476.814516
 20
284.177083
 11
462.741379
 21
317.71089
  0
LINE
  8
CYAN
 10
489.017184
 20
292.41375
 11
474.817665
 21
325.852318
  0
LINE
  8
CYAN
 10
486.579715
 20
334.14658
 11
502.676218
 21
301.230176
  0
LINE
  8
CYAN
 10
514.658264
 20
308.56297
 11
498.578895
 21
342.193206
  0
LINE
  8
CYAN
 10
508.954368
 20
349.523749
 11
526.335392
 21
315.642312
  0
LINE
  8
CYAN
 10
514.923473
 20
337.763263
 11
624.124389
 21
399.73019
  0
LINE
  8
CYAN
 10
545.473782
 20
324.884982
 11
523.51715
 21
363.339994
  0
LINE
  8
CYAN
 10
557.277645
 20
330.325035
 11
535.467741
 21
370.093469
  0
LINE
  8
CYAN
 10
545.001374
 20
375.841014
 11
567.664749
 21
335.263384
  0
LINE
  8
CYAN
 10
577.92766
 20
340.371076
 11
563.07453
 21
365.085082
  0
LINE
  8
CYAN
 10
587.06126
 20
345.011948
 11
566.217013
 21
388.054626
  0
LINE
  8
CYAN
 10
596.260646
 20
349.65282
 11
583.098574
 21
376.446848
  0
LINE
  8
CYAN
 10
605.919974
 20
354.504621
 11
584.171166
 21
398.198658
  0
LINE
  8
CYAN
 10
619.238695
 20
361.242337
 11
591.129816
 21
402.335565
  0
LINE
  8
CYAN
 10
614.719202
 20
357.599641
 11
601.635611
 21
386.945576
  0
LINE
  8
CYAN
 10
628.441958
 20
366.865689
 11
611.268173
 21
392.392831
  0
LINE
  8
CYAN
 10
635.143529
 20
369.734271
 11
618.524801
 21
396.489528
  0
LINE
  8
GREEN
 10
626.009992
 20
396.978673
 11
665.970782
 21
394.116969
  0
LINE
  8
CYAN
 10
672.672353
 20
302.323216
 11
546.682677
 21
325.271686
  0
LINE
  8
CYAN
 10
635.143529
 20
293.717532
 11
523.582624
 21
313.931869
  0
LINE
  8
CYAN
 10
586.840888
 20
285.458789
 11
507.602685
 21
304.266475
  0
LINE
  8
CYAN
 10
546.682677
 20
277.940518
 11
489.017184
 21
292.41375
  0
LINE
  8
CYAN
 10
753.096898
 20
324.874091
 11
734.680303
 21
310.771375
  0
LINE
  8
CYAN
 10
682.809819
 20
303.720049
 11
716.939581
 21
330.659845
  0
LINE
  8
CYAN
 10
693.454253
 20
334.456751
 11
635.332196
 21
293.594964
  0
LINE
  8
CYAN
 10
592.923431
 20
286.362851
 11
666.589686
 21
338.615233
  0
LINE
  8
CYAN
 10
642.766421
 20
342.412139
 11
546.838825
 21
277.949398
  0
LINE
  8
GREEN
 10
818.653118
 20
327.947787
 11
801.081364
 21
316.376342
  0
LINE
  8
CYAN
 10
797.414779
 20
318.08172
 11
799.581099
 21
323.450056
  0
LINE
  8
GREEN
 10
799.581099
 20
323.450056
 11
805.643255
 21
331.202269
  0
LINE
  8
GREEN
 10
805.643255
 20
331.202269
 11
794.491917
 21
324.331667
  0
LINE
  8
GREEN
 10
787.226722
 20
325.778152
 11
792.464424
 21
334.637539
  0
LINE
  8
GREEN
 10
792.464424
 20
334.637539
 11
782.157927
 21
326.682151
  0
LINE
  8
GREEN
 10
750.410667
 20
332.443016
 11
760.362155
 21
342.773714
  0
LINE
  8
GREEN
 10
760.362155
 20
342.773714
 11
746.507514
 21
333.191116
  0
LINE
  8
GREEN
 10
715.250024
 20
339.157657
 11
726.232331
 21
351.271526
  0
LINE
  8
GREEN
 10
726.232331
 20
351.271526
 11
704.839907
 21
341.0487
  0
LINE
  8
GREEN
 10
697.002397
 20
342.412139
 11
711.532911
 21
355.06837
  0
LINE
  8
GREEN
 10
711.532911
 20
355.06837
 11
691.764633
 21
343.316138
  0
LINE
  8
GREEN
 10
684.499376
 20
344.762561
 11
700.381573
 21
357.780491
  0
LINE
  8
GREEN
 10
700.381573
 20
357.780491
 11
676.896245
 21
346.028196
  0
LINE
  8
GREEN
 10
669.46202
 20
347.474619
 11
685.344217
 21
361.577335
  0
LINE
  8
GREEN
 10
685.344217
 20
361.577335
 11
664.562192
 21
348.19783
  0
LINE
  8
GREEN
 10
655.776284
 20
349.825103
 11
673.685975
 21
364.470243
  0
LINE
  8
GREEN
 10
673.685975
 20
364.470243
 11
650.707551
 21
350.909889
  0
LINE
  8
GREEN
 10
643.442294
 20
352.356311
 11
659.324429
 21
368.0863
  0
LINE
  8
GREEN
 10
659.324429
 20
368.0863
 11
635.332196
 21
353.983584
  0
LINE
  8
GREEN
 10
629.418622
 20
354.887582
 11
647.49728
 21
371.159995
  0
LINE
  8
GREEN
 10
647.49728
 20
371.159995
 11
624.011952
 21
355.972431
  0
LINE
  8
GREEN
 10
738.566384
 20
334.818326
 11
749.88669
 21
345.124198
  0
LINE
  8
GREEN
 10
749.88669
 20
345.124198
 11
733.666556
 21
335.541537
  0
LINE
  8
GREEN
 10
774.554733
 20
327.947787
 11
783.002705
 21
336.98796
  0
LINE
  8
GREEN
 10
783.002705
 20
336.98796
 11
769.485937
 21
328.851785
  0
LINE
  8
CYAN
 10
360.37886
 20
247.820655
 11
508.954368
 21
349.523749
  0
LINE
  8
CYAN
 10
506.453739
 20
353.646085
 11
613.698451
 21
415.631148
  0
LINE
  8
CYAN
 10
508.503119
 20
425.955342
 11
484.901852
 21
403.883981
  0
LINE
  8
CYAN
 10
493.070045
 20
402.722653
 11
517.460497
 21
424.527492
  0
LINE
  8
CYAN
 10
534.494204
 20
415.017309
 11
503.561769
 21
397.530602
  0
LINE
  8
CYAN
 10
513.306831
 20
386.373136
 11
543.307315
 21
403.763602
  0
LINE
  8
CYAN
 10
547.602747
 20
391.083359
 11
516.918636
 21
375.580245
  0
LINE
  8
CYAN
 10
517.123061
 20
373.246646
 11
548.121158
 21
385.377211
  0
LINE
  8
CYAN
 10
548.022978
 20
382.642766
 11
517.259323
 21
370.54847
  0
LINE
  8
CYAN
 10
577.298438
 20
394.245603
 11
572.688958
 21
399.4985
  0
LINE
  8
CYAN
 10
580.476691
 20
404.181208
 11
585.202047
 21
398.8422
  0
LINE
  8
CYAN
 10
599.806602
 20
407.483779
 11
594.1366
 21
412.172302
  0
LINE
  8
CYAN
 10
609.262755
 20
413.050224
 11
596.112502
 21
422.65252
  0
LINE
  8
CYAN
 10
519.402255
 20
442.042152
 11
529.022124
 21
432.124494
  0
LINE
  8
CYAN
 10
525.619997
 20
446.05943
 11
537.468845
 21
437.648229
  0
LINE
  8
CYAN
 10
537.300502
 20
460.093733
 11
550.703644
 21
488.779242
  0
LINE
  8
GREEN
 10
550.703644
 20
488.779242
 11
551.830579
 21
589.562766
  0
LINE
  8
CYAN
 10
552.028938
 20
604.917985
 11
516.200552
 21
585.412852
  0
LINE
  8
YELLOW
 10
513.174821
 20
584.875869
 11
498.431314
 21
567.664501
  0
LINE
  8
YELLOW
 10
498.431314
 20
567.664501
 11
486.368473
 21
537.544701
  0
LINE
  8
YELLOW
 10
486.368473
 20
537.544701
 11
439.457475
 21
414.196857
  0
LINE
  8
YELLOW
 10
439.457475
 20
414.196857
 11
450.179951
 21
411.328274
  0
LINE
  8
YELLOW
 10
450.179951
 20
411.328274
 11
468.944363
 21
417.065439
  0
LINE
  8
CYAN
 10
468.944363
 20
417.065439
 11
537.300502
 21
460.093733
  0
LINE
  8
GREEN
 10
551.830579
 20
589.562766
 11
532.299369
 21
580.09742
  0
LINE
  8
GREEN
 10
550.703644
 20
523.201915
 11
526.519743
 21
519.254175
  0
LINE
  8
CYAN
 10
533.711022
 20
594.942233
 11
519.871514
 21
449.197911
  0
LINE
  8
CYAN
 10
506.69606
 20
440.890579
 11
526.338706
 21
577.082445
  0
LINE
  8
CYAN
 10
521.08856
 20
574.467128
 11
497.101018
 21
434.788089
  0
LINE
  8
CYAN
 10
513.174821
 20
570.533083
 11
471.755726
 21
418.805398
  0
LINE
  8
YELLOW
 10
468.944363
 20
417.065439
 11
463.583156
 21
428.539642
  0
LINE
  8
YELLOW
 10
463.583156
 20
428.539642
 11
516.110065
 21
585.509718
  0
LINE
  8
CYAN
 10
532.312939
 20
580.085289
 11
510.588394
 21
569.139564
  0
LINE
  8
CYAN
 10
483.794741
 20
426.264012
 11
517.377326
 21
572.432943
  0
LINE
  8
CYAN
 10
424.713968
 20
292.283304
 11
440.582158
 21
258.864497
  0
LINE
  8
CYAN
 10
440.582158
 20
258.864497
 11
468.080443
 21
247.268304
  0
LINE
  8
CYAN
 10
451.095144
 20
239.980519
 11
428.734936
 21
250.689238
  0
LINE
  8
CYAN
 10
428.734936
 20
250.689238
 11
412.651128
 21
283.67762
  0
LINE
  8
CYAN
 10
400.609799
 20
275.163861
 11
416.672095
 21
242.083554
  0
LINE
  8
CYAN
 10
416.672095
 20
242.083554
 11
435.513362
 21
233.150189
  0
LINE
  8
CYAN
 10
388.885832
 20
267.198218
 11
404.609255
 21
233.477932
  0
LINE
  8
CYAN
 10
404.609255
 20
233.477932
 11
418.616882
 21
225.769441
  0
LINE
  8
CYAN
 10
550.703644
 20
309.494609
 11
545.342375
 21
325.271686
  0
LINE
  8
CYAN
 10
531.820229
 20
298.440575
 11
523.582624
 21
313.931869
  0
LINE
  8
CYAN
 10
434.050993
 20
340.585569
 11
419.287288
 21
346.607828
  0
LINE
  8
CYAN
 10
419.287288
 20
346.607828
 11
411.050745
 21
357.696382
  0
LINE
  8
CYAN
 10
394.815916
 20
360.190632
 11
399.088022
 21
350.051603
  0
LINE
  8
CYAN
 10
399.088022
 20
350.051603
 11
410.102222
 21
339.973607
  0
LINE
  8
CYAN
 10
409.970524
 20
325.271686
 11
399.247985
 21
332.443016
  0
LINE
  8
CYAN
 10
399.247985
 20
332.443016
 11
388.170438
 21
343.140541
  0
LINE
  8
CYAN
 10
388.170438
 20
343.140541
 11
383.452648
 21
352.612203
  0
LINE
  8
CYAN
 10
370.853012
 20
344.326257
 11
376.284632
 21
335.50508
  0
LINE
  8
CYAN
 10
376.284632
 20
335.50508
 11
387.185144
 21
325.271686
  0
LINE
  8
CYAN
 10
387.185144
 20
325.271686
 11
398.376692
 21
317.780116
  0
LINE
  8
CYAN
 10
387.490125
 20
310.810147
 11
376.789661
 21
316.58527
  0
LINE
  8
CYAN
 10
376.789661
 20
316.58527
 11
365.357481
 21
328.530233
  0
LINE
  8
CYAN
 10
365.357481
 20
328.530233
 11
360.05368
 21
337.146235
  0
LINE
  8
CYAN
 10
348.316019
 20
329.574496
 11
352.705065
 21
320.461282
  0
LINE
  8
CYAN
 10
352.705065
 20
320.461282
 11
364.399765
 21
308.060318
  0
LINE
  8
CYAN
 10
364.399765
 20
308.060318
 11
375.207851
 21
301.848829
  0
LINE
  8
CYAN
 10
365.065632
 20
294.67975
 11
354.149174
 21
300.604831
  0
LINE
  8
CYAN
 10
354.149174
 20
300.604831
 11
340.274083
 21
312.363191
  0
LINE
  8
CYAN
 10
340.274083
 20
312.363191
 11
335.260068
 21
320.734808
  0
LINE
  8
CYAN
 10
418.001516
 20
348.364985
 11
401.525554
 21
351.57463
  0
LINE
  8
CYAN
 10
408.660114
 20
341.248247
 11
389.576026
 21
343.984319
  0
LINE
  8
CYAN
 10
396.935209
 20
334.666305
 11
380.334991
 21
338.01659
  0
LINE
  8
CYAN
 10
385.633226
 20
326.726863
 11
369.127685
 21
330.855203
  0
LINE
  8
CYAN
 10
375.100104
 20
318.334922
 11
356.347449
 21
322.786252
  0
LINE
  8
CYAN
 10
361.719161
 20
310.9289
 11
343.618303
 21
314.589481
  0
LINE
  8
CYAN
 10
352.227051
 20
302.168005
 11
332.895701
 21
307.879218
  0
LINE
  8
RED
 10
345.635353
 20
280.809037
 11
365.740129
 21
295.151823
  0
LINE
  8
RED
 10
365.740129
 20
295.151823
 11
373.782002
 21
299.454696
  0
LINE
  8
RED
 10
373.782002
 20
299.454696
 11
376.462605
 21
303.757507
  0
LINE
  8
RED
 10
376.462605
 20
303.757507
 11
452.860617
 21
352.522903
  0
LINE
  8
RED
 10
456.913227
 20
348.206773
 11
385.844843
 21
298.020405
  0
LINE
  8
RED
 10
385.844843
 20
298.020405
 11
379.143271
 21
296.586114
  0
LINE
  8
RED
 10
379.143271
 20
296.586114
 11
372.4417
 21
290.849012
  0
LINE
  8
RED
 10
372.4417
 20
290.849012
 11
348.316019
 21
273.637707
  0
LINE
  8
RED
 10
370.834564
 20
294.779305
 11
377.176598
 21
299.303691
  0
LINE
  8
RED
 10
456.913227
 20
348.206773
 11
462.242792
 21
353.957194
  0
LINE
  8
RED
 10
462.242792
 20
353.957194
 11
467.604061
 21
356.825776
  0
LINE
  8
RED
 10
467.604061
 20
356.825776
 11
479.711614
 21
363.957585
  0
LINE
  8
RED
 10
479.711614
 20
363.957585
 11
474.432015
 21
367.63849
  0
LINE
  8
RED
 10
474.432015
 20
367.63849
 11
462.242792
 21
361.128587
  0
LINE
  8
RED
 10
462.242792
 20
361.128587
 11
458.016023
 21
355.290367
  0
LINE
  8
RED
 10
460.187283
 20
354.593295
 11
465.872606
 21
360.704666
  0
LINE
  8
RED
 10
462.242792
 20
353.957194
 11
458.016023
 21
355.290367
  0
LINE
  8
MAGENTA
 10
557.957583
 20
390.922332
 11
594.909776
 21
412.723857
  0
LINE
  8
MAGENTA
 10
543.398615
 20
408.330183
 11
578.758868
 21
429.915151
  0
LINE
  8
CYAN
 10
576.17488
 20
428.309328
 11
572.145158
 21
432.732955
  0
LINE
  8
MAGENTA
 10
572.145158
 20
432.732955
 11
540.048705
 21
410.658468
  0
LINE
  8
CYAN
 10
513.174821
 20
429.973933
 11
543.692903
 21
451.586916
  0
LINE
  8
CYAN
 10
561.061545
 20
419.067168
 11
557.484259
 21
422.594801
  0
LINE
  8
CYAN
 10
618.496223
 20
423.432888
 11
608.337182
 21
437.145264
  0
LINE
  8
CYAN
 10
608.337182
 20
437.145264
 11
629.78226
 21
448.61953
  0
LINE
  8
CYAN
 10
456.895218
 20
474.391432
 11
464.135086
 21
478.871027
  0
LINE
  8
GREEN
 10
397.907683
 20
404.156882
 11
389.599101
 21
398.292272
  0
LINE
  8
GREEN
 10
389.599101
 20
398.292272
 11
314.8081
 21
405.591173
  0
LINE
  8
GREEN
 10
314.8081
 20
405.591173
 11
303.621555
 21
398.406085
  0
LINE
  8
YELLOW
 10
303.621555
 20
398.406085
 11
290.619447
 21
390.105694
  0
LINE
  8
YELLOW
 10
290.857891
 20
384.049979
 11
301.402957
 21
395.468089
  0
LINE
  8
GREEN
 10
312.285584
 20
346.748969
 11
389.599101
 21
398.292272
  0
LINE
  8
CYAN
 10
312.586062
 20
398.39708
 11
378.552821
 21
390.918705
  0
LINE
  8
CYAN
 10
369.401461
 20
384.816715
 11
310.906011
 21
392.702814
  0
LINE
  8
CYAN
 10
319.971886
 20
365.622503
 11
345.191421
 21
388.159558
  0
LINE
  8
CYAN
 10
330.891909
 20
389.814159
 11
315.124212
 21
373.743482
  0
LINE
  8
YELLOW
 10
320.284058
 20
391.409351
 11
309.446831
 21
382.642766
  0
LINE
  8
YELLOW
 10
309.446831
 20
382.642766
 11
325.86251
 21
355.9845
  0
LINE
  8
CYAN
 10
318.829068
 20
356.825776
 11
319.971886
 21
365.622503
  0
LINE
  8
CYAN
 10
329.245
 20
368.491461
 11
331.134042
 21
375.83276
  0
LINE
  8
CYAN
 10
331.134042
 20
375.83276
 11
333.572512
 21
366.865689
  0
LINE
  8
CYAN
 10
317.467067
 20
372.698844
 11
319.419519
 21
377.922037
  0
LINE
  8
CYAN
 10
319.419519
 20
377.922037
 11
321.509672
 21
371.168562
  0
LINE
  8
CYAN
 10
318.829068
 20
382.642766
 11
321.509672
 21
391.248387
  0
LINE
  8
CYAN
 10
321.509672
 20
391.248387
 11
323.793931
 21
385.666934
  0
LINE
  8
CYAN
 10
324.190338
 20
378.339892
 11
325.471982
 21
384.189932
  0
LINE
  8
CYAN
 10
325.471982
 20
384.189932
 11
328.211243
 21
378.339892
  0
LINE
  8
CYAN
 10
330.891909
 20
379.774184
 11
331.329275
 21
390.039908
  0
LINE
  8
CYAN
 10
337.59348
 20
375.471373
 11
337.59348
 21
381.208475
  0
LINE
  8
CYAN
 10
337.59348
 20
381.208475
 11
340.274083
 21
375.471373
  0
LINE
  8
CYAN
 10
344.295051
 20
375.471373
 11
345.386653
 21
387.741703
  0
LINE
  8
CYAN
 10
349.877255
 20
371.86307
 11
311.414604
 21
379.593459
  0
LINE
  8
GREEN
 10
318.829068
 20
329.574496
 11
435.668385
 21
408.677187
  0
LINE
  8
CYAN
 10
435.668385
 20
408.677187
 11
436.776809
 21
405.591173
  0
LINE
  8
GREEN
 10
436.776809
 20
405.591173
 11
321.509672
 21
326.705914
  0
LINE
  8
CYAN
 10
324.190338
 20
320.968812
 11
402.100683
 21
374.071913
  0
LINE
  8
CYAN
 10
501.993216
 20
363.40947
 11
454.093422
 21
404.609506
  0
LINE
  8
CYAN
 10
475.315581
 20
368.268833
 11
470.720919
 21
390.307702
  0
LINE
  8
CYAN
 10
455.958051
 20
330.780561
 11
455.925238
 21
330.908783
  0
LINE
  8
CYAN
 10
424.0698
 20
396.364209
 11
429.355153
 21
376.201776
  0
LINE
  8
CYAN
 10
412.651128
 20
388.379867
 11
415.331794
 21
379.774184
  0
LINE
  8
CYAN
 10
402.100683
 20
374.071913
 11
400.954301
 21
380.726459
  0
LINE
  8
CYAN
 10
392.234867
 20
367.519237
 11
390.342886
 21
373.798388
  0
LINE
  8
CYAN
 10
380.310353
 20
359.164879
 11
378.001579
 21
364.602628
  0
LINE
  8
CYAN
 10
368.130885
 20
350.955226
 11
365.740129
 21
356.825776
  0
LINE
  8
CYAN
 10
357.731587
 20
343.80128
 11
356.06029
 21
350.160288
  0
LINE
  8
CYAN
 10
345.846719
 20
335.852521
 11
343.803968
 21
341.814059
  0
LINE
  8
CYAN
 10
332.695966
 20
326.943295
 11
330.743514
 21
332.584406
  0
LINE
  8
CYAN
 10
459.407353
 20
400.060372
 11
432.350618
 21
402.430492
  0
LINE
  8
CYAN
 10
443.47838
 20
395.55126
 11
442.111126
 21
401.576521
  0
LINE
  8
CYAN
 10
497.667518
 20
360.255293
 11
479.711614
 21
363.957585
  0
LINE
  8
RED
 10
479.711614
 20
363.957585
 11
485.808352
 21
352.037448
  0
LINE
  8
RED
 10
481.900071
 20
349.249285
 11
474.831985
 21
361.047105
  0
LINE
  8
CYAN
 10
481.900071
 20
349.249285
 11
461.392948
 21
352.82926
  0
LINE
  8
RED
 10
459.553559
 20
333.985492
 11
455.073338
 21
346.751533
  0
LINE
  8
CYAN
 10
457.212518
 20
332.362659
 11
447.982427
 21
335.234931
  0
LINE
  8
CYAN
 10
447.982427
 20
335.234931
 11
441.0668
 21
337.01116
  0
LINE
  8
CYAN
 10
444.008047
 20
323.251071
 11
428.849499
 21
328.419609
  0
LINE
  8
CYAN
 10
433.828058
 20
316.253649
 11
418.595156
 21
321.183681
  0
LINE
  8
CYAN
 10
409.727953
 20
314.788216
 11
424.391103
 21
309.57434
  0
LINE
  8
CYAN
 10
413.991429
 20
302.323216
 11
397.725333
 21
306.329488
  0
LINE
  8
CYAN
 10
390.560694
 20
294.580133
 11
399.247985
 21
292.283304
  0
LINE
  8
CYAN
 10
380.139383
 20
287.211944
 11
372.4417
 21
290.849012
  0
LINE
  8
CYAN
 10
380.139383
 20
287.211944
 11
389.164986
 21
285.220533
  0
LINE
  8
RED
 10
374.928697
 20
275.363034
 11
368.880611
 21
288.307236
  0
LINE
  8
CYAN
 10
364.600375
 20
285.120978
 11
371.858128
 21
281.735548
  0
LINE
  8
CYAN
 10
371.858128
 20
281.735548
 11
352.336924
 21
267.900543
  0
LINE
  8
CYAN
 10
367.391853
 20
270.185366
 11
351.090987
 21
275.598914
  0
LINE
  8
GREEN
 10
353.677288
 20
260.729213
 11
501.993216
 21
363.40947
  0
LINE
  8
CYAN
 10
506.453739
 20
353.646085
 11
497.091012
 21
353.957194
  0
LINE
  8
CYAN
 10
497.091012
 20
353.957194
 11
355.01759
 21
257.86063
  0
LINE
  8
CYAN
 10
359.038495
 20
253.55782
 11
505.845528
 21
353.718375
  0
LINE
  8
GREEN
 10
506.453739
 20
353.646085
 11
360.308571
 21
251.781778
  0
ARC
  8
MAGENTA
 10
584.464953
 20
419.100061
 40
12.237875
 50
328.811282
 51
117.309548
  0
ARC
  8
RED
 10
471.74497
 20
263.705229
 40
13.587994
 50
38.712782
 51
286.684
  0
CIRCLE
  8
RED
 10
542.87145
 20
286.546202
 40
4.072183
  0
CIRCLE
  8
RED
 10
509.056112
 20
292.642939
 40
4.134343
  0
LINE
  8
BLUE
 10
312.285584
 20
346.748969
 11
111.080173
 21
219.135147
  0
LINE
  8
BLUE
 10
111.080173
 20
219.135147
 11
108.399507
 21
214.832336
  0
LINE
  8
BLUE
 10
108.399507
 20
214.832336
 11
127.163919
 21
191.883866
  0
LINE
  8
BLUE
 10
127.163919
 20
191.883866
 11
168.71371
 21
193.318157
  0
LINE
  8
BLUE
 10
168.71371
 20
193.318157
 11
202.999621
 21
200.672151
  0
LINE
  8
BLUE
 10
202.999621
 20
200.672151
 11
210.384381
 21
202.614347
  0
LINE
  8
BLUE
 10
246.452024
 20
184.712474
 11
352.336924
 21
262.163441
  0
LINE
  8
BLUE
 10
318.829068
 20
329.574496
 11
175.026692
 21
227.175081
  0
LINE
  8
BLUE
 10
360.308571
 20
251.781778
 11
249.132627
 21
177.541081
  0
LINE
  8
BLUE
 10
249.132627
 20
177.541081
 11
246.452024
 21
184.712474
  0
LINE
  8
BLUE
 10
246.452024
 20
184.712474
 11
239.750453
 21
193.318157
  0
LINE
  8
BLUE
 10
349.656321
 20
272.203416
 11
239.750453
 21
193.318157
  0
LINE
  8
BLUE
 10
360.37886
 20
247.820655
 11
250.472992
 21
164.632586
  0
LINE
  8
BLUE
 10
239.560723
 20
171.094463
 11
230.658876
 21
184.658131
  0
LINE
  8
BLUE
 10
207.024653
 20
193.935185
 11
165.085022
 21
185.699831
  0
LINE
  8
BLUE
 10
165.085022
 20
185.699831
 11
116.441443
 21
181.843954
  0
LINE
  8
BLUE
 10
116.441443
 20
181.843954
 11
98.810656
 21
209.686373
  0
LINE
  8
BLUE
 10
102.47649
 20
213.173296
 11
123.143014
 21
186.146765
  0
LINE
  8
BLUE
 10
123.143014
 20
186.146765
 11
167.236333
 21
189.536634
  0
LINE
  8
BLUE
 10
167.236333
 20
189.536634
 11
208.82771
 21
197.210304
  0
LINE
  8
BLUE
 10
95.450365
 20
202.712526
 11
115.101078
 21
176.10679
  0
LINE
  8
BLUE
 10
115.101078
 20
176.10679
 11
202.373838
 21
184.93247
  0
LINE
  8
BLUE
 10
247.792326
 20
154.592674
 11
365.864573
 21
247.212695
  0
LINE
  8
RED
 10
179.458262
 20
173.182677
 11
168.71371
 21
168.935459
  0
LINE
  8
RED
 10
168.71371
 20
168.935459
 11
174.07498
 21
154.592674
  0
LINE
  8
RED
 10
174.07498
 20
154.592674
 11
186.137821
 21
164.632586
  0
LINE
  8
RED
 10
186.137821
 20
164.632586
 11
179.436249
 21
173.23827
  0
LINE
  8
RED
 10
162.012139
 20
164.632586
 11
170.054012
 21
153.158383
  0
LINE
  8
RED
 10
170.054012
 20
153.158383
 11
147.268695
 21
153.158383
  0
LINE
  8
RED
 10
147.268695
 20
153.158383
 11
145.928331
 21
163.198295
  0
LINE
  8
RED
 10
145.928331
 20
163.198295
 11
161.943852
 21
164.683302
  0
LINE
  8
RED
 10
139.22676
 20
163.198295
 11
140.567124
 21
153.158383
  0
LINE
  8
RED
 10
140.567124
 20
153.158383
 11
120.462348
 21
150.2898
  0
LINE
  8
RED
 10
120.462348
 20
150.2898
 11
116.441443
 21
154.592674
  0
LINE
  8
RED
 10
116.441443
 20
154.592674
 11
125.823617
 21
164.632586
  0
LINE
  8
RED
 10
125.823617
 20
164.632586
 11
139.22676
 21
163.198295
  0
LINE
  8
BLUE
 10
115.101078
 20
176.10679
 11
100.357634
 21
151.724092
  0
LINE
  8
RED
 10
101.697936
 20
168.935459
 11
99.017332
 21
157.461193
  0
LINE
  8
RED
 10
99.017332
 20
157.461193
 11
94.996365
 21
157.461193
  0
LINE
  8
RED
 10
94.996365
 20
157.461193
 11
92.315761
 21
171.803979
  0
LINE
  8
RED
 10
92.315761
 20
171.803979
 11
96.336666
 21
177.541081
  0
LINE
  8
RED
 10
96.336666
 20
177.541081
 11
101.697936
 21
168.935459
  0
LINE
  8
RED
 10
89.544358
 20
173.40061
 11
82.933524
 21
176.10679
  0
LINE
  8
RED
 10
82.933524
 20
176.10679
 11
90.975397
 21
186.146765
  0
LINE
  8
RED
 10
90.975397
 20
186.146765
 11
94.996365
 21
181.843954
  0
LINE
  8
RED
 10
94.996365
 20
181.843954
 11
89.635095
 21
173.23827
  0
LINE
  8
RED
 10
90.975397
 20
190.449575
 11
85.61419
 21
181.843954
  0
LINE
  8
RED
 10
85.61419
 20
181.843954
 11
85.61419
 21
187.581056
  0
LINE
  8
RED
 10
85.61419
 20
187.581056
 11
89.635095
 21
193.318157
  0
LINE
  8
RED
 10
89.635095
 20
193.318157
 11
90.969894
 21
190.508295
  0
LINE
  8
WHITE
 10
369.994663
 20
237.569814
 11
294.703387
 21
145.98699
  0
LINE
  8
WHITE
 10
372.810654
 20
230.739422
 11
296.043688
 21
147.421281
  0
LINE
  8
WHITE
 10
379.381278
 20
216.275132
 11
297.38399
 21
147.421281
  0
LINE
  8
WHITE
 10
297.38399
 20
147.421281
 11
211.603804
 21
94.353011
  0
LINE
  8
WHITE
 10
211.603804
 20
94.353011
 11
190.158788
 21
120.170001
  0
LINE
  8
WHITE
 10
190.158788
 20
120.170001
 11
88.294793
 21
67.101731
  0
LINE
  8
WHITE
 10
294.703387
 20
145.98699
 11
226.667174
 21
111.995367
  0
LINE
  8
WHITE
 10
220.986041
 20
117.301481
 11
225.006946
 21
135.947077
  0
LINE
  8
WHITE
 10
225.006946
 20
135.947077
 11
227.687612
 21
148.855572
  0
LINE
  8
WHITE
 10
218.305375
 20
156.026965
 11
93.656063
 21
80.010226
  0
LINE
  8
WHITE
 10
104.378602
 20
84.313099
 11
93.656063
 21
91.484429
  0
LINE
  8
WHITE
 10
93.656063
 20
91.484429
 11
108.399507
 21
102.958695
  0
LINE
  8
WHITE
 10
108.399507
 20
102.958695
 11
115.101078
 21
98.655822
  0
LINE
  8
WHITE
 10
115.101078
 20
98.655822
 11
120.462348
 21
91.484429
  0
LINE
  8
WHITE
 10
120.462348
 20
91.484429
 11
104.30356
 21
84.227427
  0
LINE
  8
WHITE
 10
115.101078
 20
59.930338
 11
105.718904
 21
74.273124
  0
LINE
  8
WHITE
 10
105.718904
 20
74.273124
 11
129.844585
 21
87.181619
  0
LINE
  8
WHITE
 10
129.844585
 20
87.181619
 11
140.567124
 21
71.404604
  0
LINE
  8
WHITE
 10
140.567124
 20
71.404604
 11
115.101078
 21
59.930338
  0
LINE
  8
WHITE
 10
383.368727
 20
210.449168
 11
360.044863
 21
200.002719
  0
LINE
  8
YELLOW
 10
360.044863
 20
200.002719
 11
381.823875
 21
190.449575
  0
LINE
  8
YELLOW
 10
381.823875
 20
190.449575
 11
395.377478
 21
178.017873
  0
LINE
  8
YELLOW
 10
392.522588
 20
194.779526
 11
383.511431
 21
188.953563
  0
LINE
  8
YELLOW
 10
368.566043
 20
165.993439
 11
124.483315
 21
34.113349
  0
LINE
  8
YELLOW
 10
389.331141
 20
198.194722
 11
377.802907
 21
191.883866
  0
LINE
  8
YELLOW
 10
377.802907
 20
191.883866
 11
266.556738
 21
112.998608
  0
LINE
  8
YELLOW
 10
266.556738
 20
112.998608
 11
253.153595
 21
107.261506
  0
LINE
  8
YELLOW
 10
253.153595
 20
107.261506
 11
124.483315
 21
41.284742
  0
LINE
  8
YELLOW
 10
387.82925
 20
200.806287
 11
375.122304
 21
193.318157
  0
LINE
  8
YELLOW
 10
375.122304
 20
193.318157
 11
257.174563
 21
111.564317
  0
LINE
  8
YELLOW
 10
257.174563
 20
111.564317
 11
203.561931
 21
82.878808
  0
LINE
  8
RED
 10
203.561931
 20
82.878808
 11
187.478122
 21
80.010226
  0
LINE
  8
RED
 10
187.478122
 20
80.010226
 11
176.755646
 21
78.575935
  0
LINE
  8
RED
 10
176.755646
 20
78.575935
 11
155.310568
 21
69.970313
  0
LINE
  8
RED
 10
155.310568
 20
69.970313
 11
108.399507
 21
47.021844
  0
LINE
  8
YELLOW
 10
385.844843
 20
203.35807
 11
371.101336
 21
196.186677
  0
LINE
  8
YELLOW
 10
371.101336
 20
196.186677
 11
255.834199
 21
111.564317
  0
LINE
  8
YELLOW
 10
255.834199
 20
111.564317
 11
206.242534
 21
84.313099
  0
LINE
  8
RED
 10
206.242534
 20
84.313099
 11
187.478122
 21
84.313099
  0
LINE
  8
RED
 10
187.478122
 20
84.313099
 11
172.734678
 21
84.313099
  0
LINE
  8
RED
 10
172.734678
 20
84.313099
 11
159.331536
 21
80.010226
  0
LINE
  8
RED
 10
159.331536
 20
80.010226
 11
105.718904
 21
52.758945
  0
LINE
  8
WHITE
 10
78.241436
 20
177.650266
 11
94.996365
 21
201.923841
  0
LINE
  8
BLUE
 10
94.996365
 20
201.923841
 11
99.017332
 21
210.529463
  0
LINE
  8
BLUE
 10
99.017332
 20
210.529463
 11
104.378602
 21
214.832336
  0
LINE
  8
BLUE
 10
104.378602
 20
214.832336
 11
111.080173
 21
219.135147
  0
LINE
  8
GREEN
 10
186.019881
 20
217.693789
 11
171.053063
 21
221.506204
  0
LINE
  8
GREEN
 10
171.053063
 20
221.506204
 11
161.397613
 21
215.641907
  0
LINE
  8
GREEN
 10
161.397613
 20
215.641907
 11
175.415282
 21
211.963754
  0
LINE
  8
GREEN
 10
175.415282
 20
211.963754
 11
186.137821
 21
217.700856
  0
LINE
  8
GREEN
 10
167.479155
 20
223.400124
 11
153.970266
 21
226.306539
  0
LINE
  8
GREEN
 10
153.970266
 20
226.306539
 11
144.588029
 21
220.569438
  0
LINE
  8
GREEN
 10
144.588029
 20
220.569438
 11
156.65087
 21
217.700856
  0
LINE
  8
GREEN
 10
156.65087
 20
217.700856
 11
167.373409
 21
223.437957
  0
LINE
  8
BLUE
 10
644.657527
 20
414.346627
 11
620.577683
 21
405.153744
  0
LINE
  8
CYAN
 10
626.36994
 20
436.548372
 11
621.740324
 21
444.316657
  0
LINE
  8
CYAN
 10
621.740324
 20
444.316657
 11
597.614705
 21
460.093733
  0
LINE
  8
CYAN
 10
597.614705
 20
460.093733
 11
581.875962
 21
465.64098
  0
LINE
  8
CYAN
 10
581.875962
 20
465.64098
 11
569.100291
 21
467.403077
  0
LINE
  8
CYAN
 10
598.955007
 20
462.962253
 11
613.698451
 21
470.133646
  0
LINE
  8
CYAN
 10
613.698451
 20
470.133646
 11
620.496076
 21
468.600363
  0
LINE
  8
CYAN
 10
597.614705
 20
474.436519
 11
588.354473
 21
466.318667
  0
LINE
  8
CYAN
 10
408.630222
 20
385.511285
 11
488.987791
 21
374.595823
  0
LINE
  8
CYAN
 10
401.653374
 20
376.943935
 11
471.472195
 21
366.012031
  0
LINE
  8
CYAN
 10
409.385389
 20
362.720715
 11
456.113286
 21
354.19889
  0
LINE
  8
RED
 10
452.76494
 20
345.186232
 11
457.192944
 21
332.373603
  0
LINE
  8
MAGENTA
 10
553.18914
 20
448.319177
 11
525.114406
 21
429.607919
  0
LINE
  8
GREEN
 10
760.86906
 20
330.479058
 11
769.823874
 21
340.242443
  0
LINE
  8
GREEN
 10
769.823874
 20
340.242443
 11
755.800264
 21
331.563843
  0
LINE
  8
GREEN
 10
726.284985
 20
336.745889
 11
737.214701
 21
348.559467
  0
LINE
  8
GREEN
 10
737.214701
 20
348.559467
 11
720.825662
 21
338.072808
  0
LINE
  8
CYAN
 10
799.560712
 20
323.427668
 11
612.759996
 21
357.914502
  0
LINE
  8
RED
 10
534.619836
 20
283.67762
 11
503.848052
 21
277.346753
  0
LINE
  8
RED
 10
513.174821
 20
279.374809
 11
509.024844
 21
285.266371
  0
LINE
  8
RED
 10
498.673197
 20
284.091473
 11
533.279534
 21
287.98043
  0
LINE
  8
RED
 10
533.279534
 20
287.98043
 11
534.619836
 21
283.67762
  0
LINE
  8
RED
 10
510.789317
 20
285.476174
 11
522.556995
 21
292.283304
  0
LINE
  8
RED
 10
522.556995
 20
292.283304
 11
519.876392
 21
295.151823
  0
LINE
  8
RED
 10
519.876392
 20
295.151823
 11
504.868489
 21
284.804804
  0
LINE
  8
RED
 10
500.281147
 20
271.922574
 11
503.792583
 21
275.071936
  0
LINE
  8
RED
 10
503.792583
 20
275.071936
 11
503.792583
 21
279.374809
  0
LINE
  8
RED
 10
503.792583
 20
279.374809
 11
501.11198
 21
282.243329
  0
LINE
  8
RED
 10
501.11198
 20
282.243329
 11
497.091012
 21
282.243329
  0
LINE
  8
RED
 10
497.091012
 20
282.243329
 11
482.347568
 21
272.203416
  0
LINE
  8
RED
 10
498.431314
 20
282.243329
 11
499.88868
 21
292.021847
  0
LINE
  8
RED
 10
499.88868
 20
292.021847
 11
506.473249
 21
292.283304
  0
LINE
  8
RED
 10
506.473249
 20
292.283304
 11
507.813551
 21
285.111911
  0
CIRCLE
  8
BLUE
 10
216.19765
 20
130.209976
 40
3.448027
  0
CIRCLE
  8
BLUE
 10
215.33161
 20
130.565297
 40
12.403028
  0
LINE
  8
GREEN
 10
823.046103
 20
326.862938
 11
641.8451
 21
372.602791
  0
LINE
  8
CYAN
 10
641.8451
 20
372.602791
 11
596.260646
 21
349.65282
  0
LINE
  8
CYAN
 10
642.725148
 20
372.393425
 11
614.719202
 21
357.599641
  0
LINE
  8
CYAN
 10
619.059721
 20
435.711035
 11
619.059721
 21
431.408162
  0
LINE
  8
BLUE
 10
553.300764
 20
482.908191
 11
540.273142
 21
461.813307
  0
LINE
  8
BLUE
 10
586.240119
 20
457.363352
 11
573.489024
 21
448.61953
  0
LINE
  8
BLUE
 10
573.489024
 20
448.61953
 11
581.530897
 21
440.013846
  0
LINE
  8
BLUE
 10
581.530897
 20
440.013846
 11
593.593738
 21
451.488049
  0
LINE
  8
BLUE
 10
593.593738
 20
451.488049
 11
586.258505
 21
457.294752
  0
LINE
  8
BLUE
 10
585.812821
 20
444.179206
 11
577.567649
 21
451.412633
  0
LINE
  8
CYAN
 10
583.641499
 20
467.316342
 11
564.686106
 21
453.215189
  0
LINE
  8
CYAN
 10
326.870941
 20
315.231711
 11
407.499536
 21
368.641231
  0
LINE
  8
CYAN
 10
407.499536
 20
368.641231
 11
405.870825
 21
373.935151
  0
LINE
  8
CYAN
 10
411.050745
 20
357.696382
 11
407.499536
 21
368.641231
  0
LINE
  8
RED
 10
372.4417
 20
290.849012
 11
378.092317
 21
277.553554
  0
LINE
  8
RED
 10
458.016023
 20
355.290367
 11
453.022081
 21
352.502142
  0
LINE
  8
CYAN
 10
548.022978
 20
379.774184
 11
537.771699
 21
386.081412
  0
LINE
  8
CYAN
 10
443.703192
 20
425.461382
 11
432.755841
 21
418.499667
  0
LINE
  8
CYAN
 10
432.755841
 20
418.499667
 11
422.033365
 21
414.196857
  0
LINE
  8
CYAN
 10
422.033365
 20
414.196857
 11
408.630222
 21
409.894046
  0
LINE
  8
CYAN
 10
408.630222
 20
409.894046
 11
404.568545
 21
409.136003
  0
LINE
  8
CYAN
 10
404.568545
 20
409.136003
 11
404.428592
 21
405.962753
  0
LINE
  8
CYAN
 10
474.018662
 20
426.942074
 11
464.785757
 21
425.876548
  0
LINE
  8
CYAN
 10
498.820904
 20
444.474556
 11
466.596131
 21
437.209737
  0
LINE
  8
CYAN
 10
500.721827
 20
455.807744
 11
470.85054
 21
450.383315
  0
LINE
  8
CYAN
 10
510.769432
 20
468.787653
 11
474.561836
 21
461.522771
  0
LINE
  8
CYAN
 10
512.579805
 20
481.7675
 11
478.643087
 21
473.326344
  0
LINE
  8
CYAN
 10
514.118591
 20
491.550833
 11
482.960906
 21
486.079065
  0
LINE
  8
CYAN
 10
493.299233
 20
497.362726
 11
486.22233
 21
496.14493
  0
LINE
  8
CYAN
 10
496.286381
 20
508.889646
 11
490.078707
 21
507.587115
  0
LINE
  8
CYAN
 10
518.010926
 20
518.67298
 11
492.394047
 21
514.604673
  0
LINE
  8
CYAN
 10
500.631277
 20
524.484873
 11
495.652719
 21
524.097409
  0
LINE
  8
CYAN
 10
520.545448
 20
536.108659
 11
499.001941
 21
534.65567
  0
LINE
  8
CYAN
 10
522.174785
 20
547.538713
 11
502.452282
 21
544.716094
  0
LINE
  8
CYAN
 10
523.894671
 20
559.162499
 11
506.243435
 21
556.159655
  0
LINE
  8
CYAN
 10
525.419887
 20
570.509945
 11
510.494155
 21
569.098792
  0
LINE
  8
YELLOW
 10
510.13577
 20
567.783441
 11
498.431314
 21
567.664501
  0
LINE
  8
YELLOW
 10
504.704649
 20
551.703885
 11
492.575084
 21
552.76941
  0
LINE
  8
YELLOW
 10
499.771616
 20
537.544701
 11
486.923467
 21
538.91258
  0
LINE
  8
YELLOW
 10
495.200157
 20
523.225678
 11
480.988631
 21
523.128812
  0
LINE
  8
YELLOW
 10
490.078707
 20
507.587115
 11
475.985434
 21
510.213189
  0
LINE
  8
YELLOW
 10
485.135543
 20
492.881067
 11
470.284727
 21
494.516406
  0
LINE
  8
YELLOW
 10
479.852067
 20
477.02282
 11
464.135086
 21
478.871027
  0
LINE
  8
YELLOW
 10
474.561836
 20
461.522771
 11
458.608225
 21
464.454889
  0
LINE
  8
YELLOW
 10
469.673765
 20
447.089936
 11
453.199304
 21
450.092717
  0
LINE
  8
YELLOW
 10
464.966794
 20
432.463369
 11
447.185487
 21
434.511373
  0
LINE
  8
YELLOW
 10
463.246908
 20
415.221422
 11
441.703401
 21
419.96779
  0
LINE
  8
YELLOW
 10
502.452282
 20
567.664501
 11
448.58282
 21
411.831177
  0
LINE
  8
GREEN
 10
550.703644
 20
488.779242
 11
530.598931
 21
473.002228
  0
LINE
  8
GREEN
 10
530.598931
 20
473.002228
 11
522.017886
 21
471.792185
  0
LINE
  8
GREEN
 10
383.563334
 20
398.897794
 11
371.842307
 21
391.676936
  0
LINE
  8
GREEN
 10
368.382837
 20
392.033758
 11
373.782002
 21
399.854071
  0
LINE
  8
GREEN
 10
373.782002
 20
399.854071
 11
361.839102
 21
392.836576
  0
LINE
  8
GREEN
 10
356.128891
 20
393.461045
 11
361.255593
 21
401.043352
  0
LINE
  8
GREEN
 10
361.255593
 20
401.043352
 11
350.996622
 21
394.116969
  0
LINE
  8
GREEN
 10
345.581948
 20
394.636381
 11
349.291494
 21
402.157842
  0
LINE
  8
GREEN
 10
349.291494
 20
402.157842
 11
340.207109
 21
395.245091
  0
LINE
  8
GREEN
 10
335.038883
 20
395.889947
 11
337.873009
 21
403.318107
  0
LINE
  8
GREEN
 10
337.873009
 20
403.318107
 11
327.869804
 21
396.627792
  0
LINE
  8
GREEN
 10
325.530639
 20
396.985551
 11
329.551607
 21
404.156882
  0
LINE
  8
GREEN
 10
329.551607
 20
404.156882
 11
318.24806
 21
397.770297
  0
LINE
  8
GREEN
 10
312.586062
 20
398.39708
 11
318.718132
 21
405.207586
  0
LINE
  8
CYAN
 10
754.279613
 20
313.483434
 11
753.27812
 21
325.012864
  0
LINE
  8
CYAN
 10
753.27812
 20
325.012864
 11
746.389699
 21
312.363191
  0
LINE
  8
CYAN
 10
735.66716
 20
316.666002
 11
735.560676
 21
327.793592
  0
LINE
  8
CYAN
 10
735.560676
 20
327.793592
 11
728.965589
 21
313.797419
  0
LINE
  8
CYAN
 10
726.284985
 20
312.363191
 11
722.264017
 21
318.100293
  0
LINE
  8
CYAN
 10
722.264017
 20
318.100293
 11
719.583414
 21
313.797419
  0
LINE
  8
CYAN
 10
715.562446
 20
318.100293
 11
716.999078
 21
330.706808
  0
LINE
  8
CYAN
 10
716.999078
 20
330.706808
 11
710.201177
 21
316.666002
  0
LINE
  8
CYAN
 10
706.180209
 20
316.666002
 11
703.253908
 21
319.811612
  0
LINE
  8
CYAN
 10
703.253908
 20
319.811612
 11
700.81894
 21
316.666002
  0
LINE
  8
CYAN
 10
695.457733
 20
322.403103
 11
693.390744
 21
334.412103
  0
LINE
  8
CYAN
 10
693.390744
 20
334.412103
 11
690.096463
 21
319.534521
  0
LINE
  8
CYAN
 10
684.735194
 20
319.534521
 11
683.316661
 21
327.224575
  0
LINE
  8
CYAN
 10
683.316661
 20
327.224575
 11
680.714226
 21
319.534521
  0
LINE
  8
CYAN
 10
669.991687
 20
325.271686
 11
666.593447
 21
338.6179
  0
LINE
  8
CYAN
 10
666.593447
 20
338.6179
 11
663.290116
 21
322.403103
  0
LINE
  8
CYAN
 10
659.269211
 20
322.403103
 11
655.607316
 21
330.840632
  0
LINE
  8
CYAN
 10
655.607316
 20
330.840632
 11
655.248243
 21
322.403103
  0
LINE
  8
CYAN
 10
645.866006
 20
329.574496
 11
642.766421
 21
342.412139
  0
LINE
  8
CYAN
 10
642.766421
 20
342.412139
 11
641.8451
 21
328.140205
  0
LINE
  8
CYAN
 10
635.143529
 20
326.705914
 11
628.960722
 21
333.134797
  0
LINE
  8
CYAN
 10
628.960722
 20
333.134797
 11
628.441958
 21
328.140205
  0
LINE
  8
CYAN
 10
628.989197
 20
333.129332
 11
603.229927
 21
338.072808
  0
LINE
  8
CYAN
 10
603.229927
 20
338.072808
 11
596.274341
 21
349.654384
  0
LINE
  8
CYAN
 10
616.355667
 20
335.555858
 11
613.874361
 21
346.932195
  0
LINE
  8
CYAN
 10
613.874361
 20
346.932195
 11
596.274341
 21
332.443016
  0
LINE
  8
CYAN
 10
699.705763
 20
305.889683
 11
696.747382
 21
314.721447
  0
LINE
  8
CYAN
 10
696.747382
 20
314.721447
 11
694.117368
 21
309.494609
  0
LINE
  8
CYAN
 10
690.41295
 20
304.804835
 11
688.047521
 21
307.697743
  0
LINE
  8
CYAN
 10
688.047521
 20
307.697743
 11
686.188996
 21
304.262411
  0
LINE
  8
CYAN
 10
678.033622
 20
305.191798
 11
671.893387
 21
319.298728
  0
LINE
  8
CYAN
 10
671.893387
 20
319.298728
 11
671.332051
 21
305.191798
  0
LINE
  8
CYAN
 10
667.311084
 20
305.191798
 11
664.63048
 21
313.797419
  0
LINE
  8
CYAN
 10
664.63048
 20
313.797419
 11
664.63048
 21
306.626027
  0
LINE
  8
CYAN
 10
642.794118
 20
313.149941
 11
645.53124
 21
323.678218
  0
LINE
  8
CYAN
 10
645.53124
 20
323.678218
 11
647.56181
 21
309.335787
  0
LINE
  8
CYAN
 10
639.164434
 20
309.494609
 11
635.16329
 21
316.195492
  0
LINE
  8
CYAN
 10
635.16329
 20
316.195492
 11
632.462863
 21
310.9289
  0
LINE
  8
CYAN
 10
625.761292
 20
315.231711
 11
621.21614
 21
327.930486
  0
LINE
  8
CYAN
 10
621.21614
 20
327.930486
 11
616.577727
 21
312.94101
  0
LINE
  8
CYAN
 10
615.038753
 20
316.666002
 11
612.047291
 21
321.759373
  0
LINE
  8
CYAN
 10
612.047291
 20
321.759373
 11
611.017848
 21
315.231711
  0
LINE
  8
CYAN
 10
657.097195
 20
299.323632
 11
652.876202
 21
305.928999
  0
LINE
  8
CYAN
 10
651.932195
 20
297.893325
 11
652.876202
 21
305.928999
  0
LINE
  8
CYAN
 10
647.20637
 20
296.586114
 11
645.866006
 21
300.888925
  0
LINE
  8
CYAN
 10
645.866006
 20
300.888925
 11
644.525704
 21
296.586114
  0
LINE
  8
CYAN
 10
631.122561
 20
296.586114
 11
627.12166
 21
310.620076
  0
LINE
  8
CYAN
 10
627.12166
 20
310.620076
 11
624.42099
 21
299.454696
  0
LINE
  8
CYAN
 10
619.059721
 20
299.454696
 11
617.92941
 21
304.081623
  0
LINE
  8
CYAN
 10
617.92941
 20
304.081623
 11
616.379117
 21
298.020405
  0
LINE
  8
CYAN
 10
604.316277
 20
302.323216
 11
602.209001
 21
315.157808
  0
LINE
  8
CYAN
 10
602.209001
 20
315.157808
 11
597.614705
 21
303.757507
  0
LINE
  8
CYAN
 10
593.593738
 20
303.757507
 11
590.861856
 21
307.512203
  0
LINE
  8
CYAN
 10
590.861856
 20
307.512203
 11
588.232468
 21
303.757507
  0
LINE
  8
CYAN
 10
611.677899
 20
289.436483
 11
609.773113
 21
298.314538
  0
LINE
  8
CYAN
 10
609.773113
 20
298.314538
 11
605.257483
 21
288.351698
  0
LINE
  8
CYAN
 10
599.343847
 20
287.447636
 11
597.65429
 21
289.617271
  0
LINE
  8
CYAN
 10
597.65429
 20
289.617271
 11
596.471575
 21
286.905212
  0
LINE
  8
CYAN
 10
586.892166
 20
289.414721
 11
584.073884
 21
302.971123
  0
LINE
  8
CYAN
 10
584.073884
 20
302.971123
 11
580.190595
 21
289.414721
  0
LINE
  8
CYAN
 10
577.509929
 20
290.849012
 11
573.872298
 21
296.029807
  0
LINE
  8
CYAN
 10
573.872298
 20
296.029807
 11
572.37047
 21
288.998554
  0
LINE
  8
CYAN
 10
566.78739
 20
282.243329
 11
565.538042
 21
290.515154
  0
LINE
  8
CYAN
 10
565.538042
 20
290.515154
 11
562.04515
 21
281.364594
  0
LINE
  8
CYAN
 10
557.405216
 20
280.809037
 11
556.600897
 21
284.378006
  0
LINE
  8
CYAN
 10
554.146668
 20
414.816636
 11
550.960161
 21
418.189559
  0
LINE
  8
CYAN
 10
735.525144
 20
327.766999
 11
707.984767
 21
307.155319
  0
LINE
  8
CYAN
 10
310.906011
 20
392.702814
 11
312.586062
 21
398.39708
  0
LINE
  8
CYAN
 10
312.586062
 20
398.39708
 11
303.621555
 21
398.406085
  0
LINE
  8
YELLOW
 10
294.428548
 20
387.950631
 11
290.649526
 21
390.0713
  0
LINE
  8
CYAN
 10
315.514678
 20
378.966676
 11
313.115042
 21
385.566441
  0
LINE
  8
CYAN
 10
336.600807
 20
362.879115
 11
314.989013
 21
373.920267
  0
LINE
  8
YELLOW
 10
311.433989
 20
358.337235
 11
316.637422
 21
349.623742
  0
LINE
  8
CYAN
 10
314.112529
 20
360.606424
 11
319.592489
 21
351.64617
  0
LINE
  8
CYAN
 10
362.177477
 20
385.861353
 11
344.800955
 21
373.116699
  0
LINE
  8
CYAN
 10
411.050745
 20
357.696382
 11
330.891909
 21
306.626027
  0
LINE
  8
CYAN
 10
419.287288
 20
346.607828
 11
340.274083
 21
290.849012
  0
LINE
  8
CYAN
 10
447.982427
 20
335.234931
 11
375.393954
 21
283.926132
  0
LINE
  8
CYAN
 10
508.954368
 20
349.523749
 11
506.453739
 21
353.646085
  0
POINT
  8
CYAN
 10
624.42099
 20
460.093733
  0
POINT
  8
CYAN
 10
619.059721
 20
455.790923
  0
POINT
  8
CYAN
 10
613.698451
 20
452.92234
  0
POINT
  8
CYAN
 10
613.698451
 20
468.699417
  0
POINT
  8
CYAN
 10
608.337182
 20
465.830835
  0
POINT
  8
CYAN
 10
602.975912
 20
462.962253
  0
LINE
  8
CYAN
 10
586.184214
 20
431.143203
 11
564.686106
 21
453.215189
  0
LINE
  8
CYAN
 10
443.47838
 20
395.55126
 11
453.790557
 21
395.55392
  0
LINE
  8
CYAN
 10
405.870825
 20
373.935151
 11
325.408134
 21
317.952399
  0
LINE
  8
YELLOW
 10
62.195524
 20
13.776883
 11
75.598666
 21
16.645465
  0
LINE
  8
YELLOW
 10
75.598666
 20
16.645465
 11
89.001871
 21
20.948275
  0
LINE
  8
YELLOW
 10
89.001871
 20
20.948275
 11
98.384046
 21
23.816858
  0
LINE
  8
YELLOW
 10
98.384046
 20
23.816858
 11
124.479939
 21
34.114412
  0
LINE
  8
WHITE
 10
83.750349
 20
114.082143
 11
59.51492
 21
118.47913
  0
LINE
  8
WHITE
 10
59.51492
 20
118.47913
 11
55.493952
 21
111.307738
  0
LINE
  8
WHITE
 10
55.493952
 20
111.307738
 11
78.279332
 21
105.570636
  0
LINE
  8
WHITE
 10
78.279332
 20
105.570636
 11
83.750349
 21
114.082143
  0
LINE
  8
WHITE
 10
64.973055
 20
79.790354
 11
38.069842
 21
85.490748
  0
LINE
  8
WHITE
 10
38.069842
 20
85.490748
 11
31.368271
 21
75.450836
  0
LINE
  8
WHITE
 10
31.368271
 20
75.450836
 11
58.174556
 21
68.279443
  0
LINE
  8
WHITE
 10
58.174556
 20
68.279443
 11
64.87619
 21
79.753647
  0
LINE
  8
WHITE
 10
20.930014
 20
81.05574
 11
28.687668
 21
72.582254
  0
LINE
  8
WHITE
 10
28.687668
 20
72.582254
 11
38.069842
 21
69.713734
  0
LINE
  8
WHITE
 10
38.069842
 20
69.713734
 11
49.782865
 21
66.545174
  0
LINE
  8
WHITE
 10
49.782865
 20
66.545174
 11
56.834254
 21
66.845152
  0
LINE
  8
WHITE
 10
56.834254
 20
66.845152
 11
72.918062
 21
69.713734
  0
LINE
  8
WHITE
 10
72.918062
 20
69.713734
 11
80.901466
 21
72.19429
  0
LINE
  8
WHITE
 10
80.901466
 20
72.19429
 11
93.65969
 21
80.000908
  0
LINE
  8
WHITE
 10
80.345722
 20
63.571972
 11
88.269467
 21
67.083596
  0
LINE
  8
RED
 10
105.999183
 20
52.725677
 11
86.321205
 21
49.633847
  0
LINE
  8
RED
 10
86.321205
 20
49.633847
 11
75.598666
 21
49.633847
  0
LINE
  8
RED
 10
75.598666
 20
49.633847
 11
51.472985
 21
56.80524
  0
LINE
  8
RED
 10
51.472985
 20
56.80524
 11
35.389239
 21
61.10805
  0
LINE
  8
RED
 10
35.389239
 20
61.10805
 11
15.952644
 21
65.298799
  0
LINE
  8
YELLOW
 10
121.391047
 20
44.553765
 11
86.542827
 21
44.553765
  0
LINE
  8
YELLOW
 10
11.263557
 20
43.896745
 11
12.603859
 21
55.370949
  0
LINE
  8
WHITE
 10
12.603859
 20
55.370949
 11
20.645732
 21
81.187938
  0
LINE
  8
WHITE
 10
20.645732
 20
81.187938
 11
78.241436
 21
177.650266
  0
ARC
  8
YELLOW
 10
43.910188
 20
46.600361
 40
32.814286
 50
184.167747
 51
272.243375
  0
ARC
  8
RED
 10
538.264221
 20
287.856299
 40
4.756436
 50
35.312672
 51
178.340142
  0
ARC
  8
RED
 10
505.859786
 20
292.727674
 40
5.996995
 50
43.20655
 51
186.854327
  0
ARC
  8
RED
 10
538.924835
 20
286.864565
 40
5.257587
 50
218.739831
 51
305.230688
  0
ARC
  8
RED
 10
491.467473
 20
258.946855
 40
15.803404
 50
15.929489
 51
208.395596
  0
ARC
  8
RED
 10
492.114768
 20
257.439836
 40
5.110756
 50
25.848641
 51
200.497247
  0
ARC
  8
RED
 10
503.103266
 20
284.494883
 40
5.559379
 50
39.00768
 51
132.452935
  0
ARC
  8
RED
 10
526.695403
 20
286.264922
 40
5.04003
 50
174.034875
 51
248.815957
  0
ARC
  8
RED
 10
476.672063
 20
263.21252
 40
4.850613
 50
67.808711
 51
258.296766
  0
ARC
  8
RED
 10
490.578108
 20
267.069897
 40
13.163573
 50
28.390447
 51
74.54496
  0
ARC
  8
YELLOW
 10
14.844532
 20
-0.48267
 40
49.925223
 50
16.78765
 51
93.332756
  0
ARC
  8
YELLOW
 10
24.524434
 20
9.142889
 40
47.676733
 50
8.036031
 51
104.288067
  0
ARC
  8
YELLOW
 10
8.518543
 20
-7.788512
 40
54.61406
 50
23.298248
 51
86.773408
  0
ARC
  8
BLUE
 10
621.710058
 20
424.626421
 40
25.144806
 50
335.868984
 51
71.499123
  0
ARC
  8
BLUE
 10
622.579099
 20
422.793473
 40
19.144121
 50
325.097077
 51
71.518737
  0
ARC
  8
BLUE
 10
616.135671
 20
419.027834
 40
20.395999
 50
335.978951
 51
59.670855
  0
ARC
  8
BLUE
 10
613.593769
 20
415.043073
 40
16.885188
 50
336.15893
 51
59.081172
  0
ARC
  8
BLUE
 10
614.564366
 20
413.910199
 40
11.423988
 50
315.12714
 51
66.356516
  0
ARC
  8
BLUE
 10
609.577741
 20
412.656695
 40
8.909914
 50
338.09274
 51
44.873955
  0
ARC
  8
CYAN
 10
484.16432
 20
370.780536
 40
33.073179
 50
355.877276
 51
102.236256
  0
ARC
  8
RED
 10
503.577402
 20
407.73398
 40
13.745269
 50
286.313087
 51
199.016693
  0
ARC
  8
YELLOW
 10
523.727203
 20
388.308453
 40
14.254737
 50
240.571616
 51
166.493646
  0
ARC
  8
CYAN
 10
506.268699
 20
384.123145
 40
41.930564
 50
354.041264
 51
101.218647
  0
ARC
  8
MAGENTA
 10
550.046782
 20
399.149307
 40
11.369646
 50
125.891312
 51
313.666441
  0
ARC
  8
GREEN
 10
604.067702
 20
434.210145
 40
12.517279
 50
31.132252
 51
330.900785
  0
CIRCLE
  8
GREEN
 10
573.424426
 20
457.951427
 40
7.79655
  0
ARC
  8
MAGENTA
 10
561.188615
 20
438.522273
 40
12.59132
 50
333.042167
 51
128.418435
  0
ARC
  8
MAGENTA
 10
535.066708
 20
422.04381
 40
12.50052
 50
142.763823
 51
293.721073
  0
ARC
  8
GREEN
 10
557.561614
 20
454.803065
 40
7.185526
 50
327.62498
 51
238.20523
  0
ARC
  8
CYAN
 10
424.128333
 20
397.560869
 40
33.937343
 50
54.774649
 51
124.172806
  0
ARC
  8
CYAN
 10
452.039977
 20
444.104727
 40
21.433071
 50
72.100356
 51
131.873956
  0
ARC
  8
CYAN
 10
455.89773
 20
459.97892
 40
10.917772
 50
64.387274
 51
128.004406
  0
ARC
  8
CYAN
 10
418.704591
 20
392.751278
 40
29.370449
 50
61.411586
 51
123.302096
  0
ARC
  8
CYAN
 10
430.566509
 20
406.975936
 40
33.788636
 50
59.564004
 51
121.603812
  0
ARC
  8
CYAN
 10
436.920075
 20
424.14697
 40
25.625071
 50
55.7794
 51
137.042438
  0
ARC
  8
CYAN
 10
442.754731
 20
423.210891
 40
31.306267
 50
68.979498
 51
123.165602
  0
LINE
  8
CYAN
 10
532.570706
 20
595.44351
 11
533.711022
 21
594.942233
  0
LINE
  8
CYAN
 10
552.028938
 20
604.917985
 11
550.326249
 21
605.270117
  0
LINE
  8
CYAN
 10
550.326249
 20
605.270117
 11
513.213404
 21
584.734791
  0
LINE
  8
CYAN
 10
516.291102
 20
585.509718
 11
515.838477
 21
586.090914
  0
LINE
  8
YELLOW
 10
301.402957
 20
395.468089
 11
300.235938
 21
396.181733
  0
ARC
  8
GREEN
 10
358.293647
 20
344.429252
 40
27.423938
 50
54.836964
 51
117.614901
  0
LINE
  8
CYAN
 10
345.386653
 20
387.741703
 11
348.901029
 21
379.802387
  0
LINE
  8
CYAN
 10
331.329275
 20
389.83098
 11
334.648356
 21
384.189932
  0
LINE
  8
CYAN
 10
319.971886
 20
365.622503
 11
321.762436
 21
358.073777
  0
LINE
  8
RED
 10
58.82579
 20
51.700111
 11
50.886724
 21
54.804949
  0
LINE
  8
RED
 10
50.886724
 20
54.804949
 11
43.993234
 21
56.717441
  0
LINE
  8
RED
 10
43.993234
 20
56.717441
 11
35.057118
 21
58.517497
  0
LINE
  8
RED
 10
35.057118
 20
58.517497
 11
26.999674
 21
60.301418
  0
LINE
  8
RED
 10
26.999674
 20
60.301418
 11
21.442734
 21
61.193347
  0
LINE
  8
RED
 10
21.442734
 20
61.193347
 11
18.664327
 21
61.490699
  0
LINE
  8
RED
 10
18.664327
 20
61.490699
 11
16.163697
 21
61.490699
  0
LINE
  8
RED
 10
16.163697
 20
61.490699
 11
14.774494
 21
61.490699
  0
ARC
  8
WHITE
 10
48.345009
 20
100.064537
 40
37.528699
 50
219.76545
 51
264.977581
  0
ARC
  8
WHITE
 10
61.061461
 20
122.08637
 40
61.523871
 50
254.924388
 51
287.994621
  0
ARC
  8
CYAN
 10
603.529468
 20
464.126145
 40
11.874737
 50
30.023863
 51
119.413555
  0
ARC
  8
CYAN
 10
575.666788
 20
414.283092
 40
53.592621
 50
68.117884
 51
122.607261
  0
LINE
  8
CYAN
 10
599.240415
 20
462.913914
 11
595.759932
 21
463.983003
  0
LINE
  8
CYAN
 10
543.692903
 20
451.586916
 11
540.615956
 21
455.393141
  0
ARC
  8
CYAN
 10
541.975706
 20
455.507704
 40
6.455498
 50
39.479479
 51
131.456147
  0
ARC
  8
BLUE
 10
544.729975
 20
455.662977
 40
10.211757
 50
43.796083
 51
101.620867
  0
ARC
  8
BLUE
 10
570.636826
 20
453.005324
 40
34.406164
 50
38.599176
 51
120.256056
  0
ARC
  8
BLUE
 10
564.196649
 20
450.826935
 40
32.130596
 50
33.977832
 51
112.444685
  0
ARC
  8
BLUE
 10
556.4031
 20
449.715197
 40
26.284435
 50
43.675834
 51
107.104214
  0
ARC
  8
BLUE
 10
550.031461
 20
444.170638
 40
26.124721
 50
58.305325
 51
100.176694
  0
ARC
  8
WHITE
 10
220.331993
 20
148.950312
 40
7.355307
 50
359.366372
 51
105.756334
  0
ARC
  8
BLUE
 10
254.843027
 20
202.308741
 40
25.471611
 50
210.579889
 51
256.941145
  0
ARC
  8
BLUE
 10
250.250932
 20
176.808239
 40
12.121435
 50
208.123984
 51
271.832535
  0
ARC
  8
WHITE
 10
225.501594
 20
116.42087
 40
4.553699
 50
168.050114
 51
283.624758
  0
ARC
  8
GREEN
 10
427.034623
 20
324.59156
 40
84.528058
 50
20.063987
 51
109.871122
  0
ARC
  8
BLUE
 10
242.209747
 20
164.684427
 40
11.555373
 50
196.144388
 51
298.823209
  0
ARC
  8
BLUE
 10
213.578205
 20
175.924752
 40
19.298519
 50
26.76094
 51
109.676167
  0
LINE
  8
CYAN
 10
568.242818
 20
467.319656
 11
543.692903
 21
451.586916
  0
ARC
  8
CYAN
 10
445.474731
 20
334.352632
 40
72.598166
 50
26.543159
 51
64.312557
  0
LINE
  8
CYAN
 10
433.634826
 20
402.334939
 11
434.697662
 21
397.501461
  0
LINE
  8
CYAN
 10
434.697662
 20
397.501461
 11
426.461057
 21
397.785805
  0
ARC
  8
BLUE
 10
231.438994
 20
181.61389
 40
103.642914
 50
38.137314
 51
100.17801
  0
LINE
  8
BLUE
 10
322.348134
 20
226.464439
 11
317.752412
 21
236.878745
  0
LINE
  8
BLUE
 10
317.752412
 20
236.878745
 11
312.882726
 21
245.682601
  0
ARC
  8
RED
 10
379.767178
 20
298.623613
 40
6.06547
 50
355.660904
 51
122.474091
  0
ARC
  8
RED
 10
375.334296
 20
295.91612
 40
3.856127
 50
11.291139
 51
113.250171
  0
ARC
  8
RED
 10
367.995123
 20
291.341159
 40
4.443638
 50
354.251449
 51
111.474925
  0
LINE
  8
RED
 10
377.176598
 20
299.303691
 11
382.465541
 21
304.03935
  0
ARC
  8
RED
 10
463.814221
 20
357.538294
 40
3.851249
 50
349.744007
 51
114.01038
  0
ARC
  8
RED
 10
454.260077
 20
349.744996
 40
2.942435
 50
330.416749
 51
114.63629
  0
LINE
  8
RED
 10
479.711614
 20
363.957585
 11
483.637092
 21
366.675459
  0
LINE
  8
RED
 10
483.637092
 20
366.675459
 11
482.191482
 21
367.7241
  0
LINE
  8
RED
 10
482.191482
 20
367.7241
 11
478.911673
 21
365.498435
  0
LINE
  8
RED
 10
478.911673
 20
365.498435
 11
476.47189
 21
367.140153
  0
LINE
  8
RED
 10
476.47189
 20
367.140153
 11
480.111585
 21
369.436107
  0
LINE
  8
RED
 10
480.111585
 20
369.436107
 11
478.511702
 21
370.54897
  0
LINE
  8
RED
 10
478.511702
 20
370.54897
 11
474.432015
 21
367.63849
  0
LINE
  8
RED
 10
460.192974
 20
354.541329
 11
456.433275
 21
351.887678
  0
LINE
  8
CYAN
 10
405.870825
 20
373.935151
 11
402.100683
 21
374.071913
  0
ARC
  8
BLUE
 10
149.935478
 20
99.113449
 40
130.281731
 50
46.299273
 51
102.032636
  0
ARC
  8
CYAN
 10
434.346093
 20
412.405056
 40
31.956876
 50
132.728498
 51
192.005453
  0
ARC
  8
CYAN
 10
585.433424
 20
283.014566
 40
230.545906
 50
123.885464
 51
138.466518
  0
ARC
  8
CYAN
 10
446.8468
 20
439.248861
 40
21.836982
 50
63.726408
 51
119.710642
  0
LINE
  8
YELLOW
 10
283.419913
 20
328.550431
 11
273.177202
 21
373.984553
  0
LINE
  8
YELLOW
 10
273.177202
 20
373.984553
 11
277.637724
 21
381.409586
  0
LINE
  8
YELLOW
 10
277.637724
 20
381.409586
 11
282.759049
 21
385.829211
  0
LINE
  8
YELLOW
 10
282.759049
 20
385.829211
 11
290.619447
 21
390.105694
  0
LINE
  8
YELLOW
 10
287.71522
 20
331.202269
 11
277.142138
 21
373.807768
  0
LINE
  8
YELLOW
 10
277.142138
 20
373.807768
 11
278.298526
 21
378.757748
  0
LINE
  8
YELLOW
 10
278.298526
 20
378.757748
 11
282.924265
 21
383.884576
  0
LINE
  8
YELLOW
 10
282.924265
 20
383.884576
 11
290.619447
 21
390.105694
  0
LINE
  8
YELLOW
 10
292.175743
 20
334.030829
 11
281.437445
 21
375.222048
  0
LINE
  8
YELLOW
 10
281.437445
 20
375.222048
 11
282.098247
 21
379.641673
  0
LINE
  8
YELLOW
 10
282.098247
 20
379.641673
 11
283.915499
 21
382.647081
  0
LINE
  8
YELLOW
 10
283.915499
 20
382.647081
 11
292.108268
 21
389.223833
  0
LINE
  8
YELLOW
 10
298.453518
 20
338.096947
 11
287.384788
 21
380.525598
  0
LINE
  8
YELLOW
 10
287.384788
 20
380.525598
 11
287.550004
 21
382.823866
  0
LINE
  8
YELLOW
 10
287.550004
 20
382.823866
 11
289.20204
 21
385.298856
  0
LINE
  8
YELLOW
 10
289.20204
 20
385.298856
 11
293.275349
 21
388.599426
  0
LINE
  8
YELLOW
 10
302.278252
 20
340.47382
 11
290.857891
 21
384.049979
  0
ARC
  8
BLUE
 10
295.465369
 20
273.873587
 40
58.686681
 50
63.832882
 51
95.651134
  0
LINE
  8
BLUE
 10
237.264081
 20
188.854883
 11
233.098722
 21
193.452482
  0
ARC
  8
BLUE
 10
215.036947
 20
175.558487
 40
22.552189
 50
37.844436
 51
105.974923
  0
ARC
  8
BLUE
 10
213.502101
 20
177.806289
 40
25.076518
 50
38.604336
 51
97.810709
  0
ARC
  8
BLUE
 10
203.991793
 20
157.661554
 40
27.259222
 50
8.25605
 51
93.171649
  0
ARC
  8
BLUE
 10
244.480374
 20
192.417786
 40
8.005603
 50
207.312612
 51
284.238549
  0
LINE
  8
CYAN
 10
410.102222
 20
339.973607
 11
421.230672
 21
332.321511
  0
ARC
  8
YELLOW
 10
17.899092
 20
-21.51008
 40
80.254701
 50
58.079203
 51
93.063132
  0
ARC
  8
YELLOW
 10
96.672539
 20
96.36237
 40
61.682646
 50
234.197665
 51
296.466126
  0
ARC
  8
RED
 10
88.219439
 20
100.870731
 40
57.447998
 50
239.197663
 51
290.766542
  0
LINE
  8
CYAN
 10
595.759932
 20
463.983003
 11
571.282932
 21
446.632309
  0
LINE
  8
GREEN
 10
523.098356
 20
471.945708
 11
533.050908
 21
580.434544
  0
LINE
  8
CYAN
 10
551.962839
 20
604.917985
 11
551.830579
 21
589.562766
  0
LINE
  8
YELLOW
 10
319.971886
 20
365.622503
 11
311.433989
 21
358.337235
  0
ENDSEC
  0
EOF
